<mxfile host="app.diagrams.net" agent="Mozilla/5.0 (Windows NT 10.0; Win64; x64) AppleWebKit/537.36 (KHTML, like Gecko) Chrome/131.0.0.0 Safari/537.36" version="25.0.3">
  <diagram name="페이지-1" id="wgz9PD0w91qSiE5-jBk-">
    <mxGraphModel dx="1434" dy="780" grid="1" gridSize="10" guides="1" tooltips="1" connect="1" arrows="1" fold="1" page="1" pageScale="1" pageWidth="827" pageHeight="1169" math="0" shadow="0">
      <root>
        <mxCell id="0" />
        <mxCell id="1" parent="0" />
        <mxCell id="g7_kz-98eBEBZqyPdA4t-22" value="&lt;font style=&quot;font-size: 20px;&quot;&gt;&lt;b&gt;WEB API Server&lt;/b&gt;&lt;/font&gt;" style="rounded=1;whiteSpace=wrap;html=1;labelBackgroundColor=none;fillColor=#33FF99;gradientColor=#209E5F;fontColor=default;" vertex="1" parent="1">
          <mxGeometry x="399" y="540" width="281" height="60" as="geometry" />
        </mxCell>
        <mxCell id="g7_kz-98eBEBZqyPdA4t-17" value="Data Binding" style="text;strokeColor=none;align=center;fillColor=none;html=1;verticalAlign=middle;whiteSpace=wrap;rounded=0;" vertex="1" parent="1">
          <mxGeometry x="60" y="260" width="80" height="30" as="geometry" />
        </mxCell>
        <mxCell id="g7_kz-98eBEBZqyPdA4t-18" value="Event" style="text;strokeColor=none;align=center;fillColor=none;html=1;verticalAlign=middle;whiteSpace=wrap;rounded=0;" vertex="1" parent="1">
          <mxGeometry x="240" y="260" width="80" height="30" as="geometry" />
        </mxCell>
        <mxCell id="g7_kz-98eBEBZqyPdA4t-19" value="Update" style="text;strokeColor=none;align=center;fillColor=none;html=1;verticalAlign=middle;whiteSpace=wrap;rounded=0;" vertex="1" parent="1">
          <mxGeometry x="319" y="320" width="80" height="30" as="geometry" />
        </mxCell>
        <mxCell id="g7_kz-98eBEBZqyPdA4t-20" value="Notify" style="text;strokeColor=none;align=center;fillColor=none;html=1;verticalAlign=middle;whiteSpace=wrap;rounded=0;" vertex="1" parent="1">
          <mxGeometry x="320" y="400" width="80" height="30" as="geometry" />
        </mxCell>
        <mxCell id="g7_kz-98eBEBZqyPdA4t-44" value="" style="group" vertex="1" connectable="0" parent="1">
          <mxGeometry x="80" y="80" width="240" height="160" as="geometry" />
        </mxCell>
        <mxCell id="g7_kz-98eBEBZqyPdA4t-5" value="" style="rounded=1;whiteSpace=wrap;html=1;fillColor=#f0a30a;fontColor=#000000;strokeColor=#BD7000;gradientColor=#C28954;" vertex="1" parent="g7_kz-98eBEBZqyPdA4t-44">
          <mxGeometry width="240" height="160" as="geometry" />
        </mxCell>
        <mxCell id="g7_kz-98eBEBZqyPdA4t-6" value="&lt;font style=&quot;font-size: 20px;&quot;&gt;View&lt;/font&gt;" style="text;strokeColor=none;align=center;fillColor=none;html=1;verticalAlign=middle;whiteSpace=wrap;rounded=0;fontColor=default;fontStyle=1" vertex="1" parent="g7_kz-98eBEBZqyPdA4t-44">
          <mxGeometry x="60" y="10" width="120" height="38" as="geometry" />
        </mxCell>
        <mxCell id="g7_kz-98eBEBZqyPdA4t-35" value="&lt;font style=&quot;font-size: 15px;&quot;&gt;User Interface&lt;/font&gt;" style="rounded=1;whiteSpace=wrap;html=1;" vertex="1" parent="g7_kz-98eBEBZqyPdA4t-44">
          <mxGeometry x="20" y="80" width="200" height="60" as="geometry" />
        </mxCell>
        <mxCell id="g7_kz-98eBEBZqyPdA4t-45" value="" style="group" vertex="1" connectable="0" parent="1">
          <mxGeometry x="80" y="310.96" width="240" height="159.04" as="geometry" />
        </mxCell>
        <mxCell id="g7_kz-98eBEBZqyPdA4t-53" style="edgeStyle=none;rounded=0;orthogonalLoop=1;jettySize=auto;html=1;exitX=1;exitY=0.25;exitDx=0;exitDy=0;" edge="1" parent="g7_kz-98eBEBZqyPdA4t-45" source="g7_kz-98eBEBZqyPdA4t-4">
          <mxGeometry relative="1" as="geometry">
            <mxPoint x="320" y="40.04000000000002" as="targetPoint" />
          </mxGeometry>
        </mxCell>
        <mxCell id="g7_kz-98eBEBZqyPdA4t-4" value="" style="rounded=1;whiteSpace=wrap;html=1;fillColor=default;fontColor=#ffffff;strokeColor=#006EAF;gradientColor=none;" vertex="1" parent="g7_kz-98eBEBZqyPdA4t-45">
          <mxGeometry width="240" height="159.03999999999996" as="geometry" />
        </mxCell>
        <mxCell id="g7_kz-98eBEBZqyPdA4t-7" value="&lt;font style=&quot;font-size: 20px;&quot;&gt;ViewModel&lt;/font&gt;" style="text;strokeColor=none;align=center;fillColor=none;html=1;verticalAlign=middle;whiteSpace=wrap;rounded=0;fontColor=#003191;fontStyle=1" vertex="1" parent="g7_kz-98eBEBZqyPdA4t-45">
          <mxGeometry x="43.199999999999996" y="9.999999999999998" width="153.6" height="35.22999999999999" as="geometry" />
        </mxCell>
        <mxCell id="g7_kz-98eBEBZqyPdA4t-41" value="&lt;span style=&quot;font-size: 15px;&quot;&gt;PresentationLogic&lt;br&gt;&lt;/span&gt;" style="rounded=1;whiteSpace=wrap;html=1;strokeColor=#003191;" vertex="1" parent="g7_kz-98eBEBZqyPdA4t-45">
          <mxGeometry x="24" y="79.04" width="192" height="59.999999999999986" as="geometry" />
        </mxCell>
        <mxCell id="g7_kz-98eBEBZqyPdA4t-46" value="" style="group" vertex="1" connectable="0" parent="1">
          <mxGeometry x="399" y="310" width="281" height="160" as="geometry" />
        </mxCell>
        <mxCell id="g7_kz-98eBEBZqyPdA4t-55" style="edgeStyle=none;rounded=0;orthogonalLoop=1;jettySize=auto;html=1;exitX=0;exitY=0.75;exitDx=0;exitDy=0;" edge="1" parent="g7_kz-98eBEBZqyPdA4t-46" source="g7_kz-98eBEBZqyPdA4t-1">
          <mxGeometry relative="1" as="geometry">
            <mxPoint x="-79" y="120" as="targetPoint" />
          </mxGeometry>
        </mxCell>
        <mxCell id="g7_kz-98eBEBZqyPdA4t-1" value="" style="rounded=1;whiteSpace=wrap;html=1;fillColor=#003191;strokeColor=#001DBC;fontColor=#ffffff;gradientColor=#000054;" vertex="1" parent="g7_kz-98eBEBZqyPdA4t-46">
          <mxGeometry width="281" height="160" as="geometry" />
        </mxCell>
        <mxCell id="g7_kz-98eBEBZqyPdA4t-8" value="&lt;font style=&quot;font-size: 20px;&quot;&gt;Model&lt;/font&gt;" style="text;strokeColor=none;align=center;fillColor=none;html=1;verticalAlign=middle;whiteSpace=wrap;rounded=0;fontColor=#FFFFFF;fontStyle=1" vertex="1" parent="g7_kz-98eBEBZqyPdA4t-46">
          <mxGeometry x="112.90000000000003" y="13.416153846153918" width="55.2" height="26.538461538461537" as="geometry" />
        </mxCell>
        <mxCell id="g7_kz-98eBEBZqyPdA4t-42" value="&lt;span style=&quot;font-size: 15px;&quot;&gt;BusinessLogic&lt;br&gt;&lt;/span&gt;" style="rounded=1;whiteSpace=wrap;html=1;" vertex="1" parent="g7_kz-98eBEBZqyPdA4t-46">
          <mxGeometry x="12.600000000000023" y="80" width="140" height="60" as="geometry" />
        </mxCell>
        <mxCell id="g7_kz-98eBEBZqyPdA4t-43" value="&lt;span style=&quot;font-size: 15px;&quot;&gt;Data Model&lt;br&gt;&lt;/span&gt;" style="rounded=1;whiteSpace=wrap;html=1;" vertex="1" parent="g7_kz-98eBEBZqyPdA4t-46">
          <mxGeometry x="165" y="80" width="100" height="60" as="geometry" />
        </mxCell>
        <mxCell id="g7_kz-98eBEBZqyPdA4t-51" style="edgeStyle=none;rounded=0;orthogonalLoop=1;jettySize=auto;html=1;exitX=0.25;exitY=0;exitDx=0;exitDy=0;entryX=0.25;entryY=1;entryDx=0;entryDy=0;" edge="1" parent="1" source="g7_kz-98eBEBZqyPdA4t-4" target="g7_kz-98eBEBZqyPdA4t-5">
          <mxGeometry relative="1" as="geometry" />
        </mxCell>
        <mxCell id="g7_kz-98eBEBZqyPdA4t-49" style="edgeStyle=none;rounded=0;orthogonalLoop=1;jettySize=auto;html=1;exitX=0.75;exitY=1;exitDx=0;exitDy=0;entryX=0.75;entryY=0;entryDx=0;entryDy=0;" edge="1" parent="1" source="g7_kz-98eBEBZqyPdA4t-5" target="g7_kz-98eBEBZqyPdA4t-4">
          <mxGeometry relative="1" as="geometry">
            <mxPoint x="260" y="310" as="targetPoint" />
          </mxGeometry>
        </mxCell>
        <mxCell id="g7_kz-98eBEBZqyPdA4t-60" value="&lt;font style=&quot;font-size: 60px;&quot;&gt;MVVM&lt;/font&gt;" style="text;strokeColor=none;align=center;fillColor=none;html=1;verticalAlign=middle;whiteSpace=wrap;rounded=0;fontStyle=1;fontColor=#003191;" vertex="1" parent="1">
          <mxGeometry x="330" y="80" width="211" height="90" as="geometry" />
        </mxCell>
        <mxCell id="g7_kz-98eBEBZqyPdA4t-61" value="&lt;font style=&quot;font-size: 50px;&quot;&gt;Architecture&lt;/font&gt;" style="text;strokeColor=none;align=center;fillColor=none;html=1;verticalAlign=middle;whiteSpace=wrap;rounded=0;fontStyle=1;fontColor=#808080;" vertex="1" parent="1">
          <mxGeometry x="420" y="150" width="300" height="60" as="geometry" />
        </mxCell>
        <mxCell id="g7_kz-98eBEBZqyPdA4t-62" value="&lt;font style=&quot;font-size: 30px;&quot;&gt;-Mataju&lt;/font&gt;" style="text;strokeColor=none;align=center;fillColor=none;html=1;verticalAlign=middle;whiteSpace=wrap;rounded=0;fontStyle=1" vertex="1" parent="1">
          <mxGeometry x="400" y="210" width="211" height="50" as="geometry" />
        </mxCell>
        <mxCell id="g7_kz-98eBEBZqyPdA4t-63" value="" style="endArrow=classic;html=1;rounded=0;entryX=0.75;entryY=0;entryDx=0;entryDy=0;exitX=0.75;exitY=1;exitDx=0;exitDy=0;" edge="1" parent="1" source="g7_kz-98eBEBZqyPdA4t-1" target="g7_kz-98eBEBZqyPdA4t-22">
          <mxGeometry width="50" height="50" relative="1" as="geometry">
            <mxPoint x="590" y="280" as="sourcePoint" />
            <mxPoint x="640" y="230" as="targetPoint" />
          </mxGeometry>
        </mxCell>
        <mxCell id="g7_kz-98eBEBZqyPdA4t-64" value="" style="endArrow=classic;html=1;rounded=0;exitX=0.25;exitY=0;exitDx=0;exitDy=0;entryX=0.25;entryY=1;entryDx=0;entryDy=0;" edge="1" parent="1" source="g7_kz-98eBEBZqyPdA4t-22" target="g7_kz-98eBEBZqyPdA4t-1">
          <mxGeometry width="50" height="50" relative="1" as="geometry">
            <mxPoint x="590" y="280" as="sourcePoint" />
            <mxPoint x="640" y="230" as="targetPoint" />
          </mxGeometry>
        </mxCell>
        <mxCell id="g7_kz-98eBEBZqyPdA4t-65" value="WPF Application" style="swimlane;whiteSpace=wrap;html=1;" vertex="1" parent="1">
          <mxGeometry x="40" y="40" width="700" height="470" as="geometry" />
        </mxCell>
      </root>
    </mxGraphModel>
  </diagram>
</mxfile>
